<svg width="269" height="15" viewBox="0 0 269 15" fill="none" xmlns="http://www.w3.org/2000/svg">
<path d="M5.621 11.371C6.33967 11.371 7.014 11.238 7.644 10.972C8.274 10.7013 8.827 10.328 9.303 9.852C9.779 9.376 10.1523 8.823 10.423 8.193C10.6937 7.563 10.829 6.88867 10.829 6.17C10.829 5.45133 10.6937 4.777 10.423 4.147C10.1523 3.517 9.779 2.964 9.303 2.488C8.827 2.012 8.274 1.641 7.644 1.375C7.014 1.10433 6.33967 0.968999 5.621 0.968999C4.90233 0.968999 4.228 1.10433 3.598 1.375C2.97267 1.641 2.422 2.012 1.946 2.488C1.47 2.964 1.09667 3.517 0.826 4.147C0.555333 4.777 0.42 5.45133 0.42 6.17C0.42 6.88867 0.555333 7.563 0.826 8.193C1.09667 8.823 1.47 9.376 1.946 9.852C2.422 10.328 2.97267 10.7013 3.598 10.972C4.228 11.238 4.90233 11.371 5.621 11.371ZM5.621 10.37C5.03767 10.37 4.49167 10.2627 3.983 10.048C3.47433 9.82867 3.02633 9.52767 2.639 9.145C2.25633 8.75767 1.95533 8.30967 1.736 7.801C1.52133 7.29233 1.414 6.74633 1.414 6.163C1.414 5.58433 1.52133 5.043 1.736 4.539C1.95533 4.03033 2.25633 3.58467 2.639 3.202C3.02633 2.81467 3.47433 2.51367 3.983 2.299C4.49167 2.07967 5.03767 1.97 5.621 1.97C6.19967 1.97 6.741 2.07967 7.245 2.299C7.75367 2.51367 8.19933 2.81467 8.582 3.202C8.96933 3.58467 9.27033 4.03033 9.485 4.539C9.70433 5.043 9.814 5.58433 9.814 6.163C9.814 6.74633 9.70433 7.29233 9.485 7.801C9.27033 8.30967 8.96933 8.75767 8.582 9.145C8.19933 9.52767 7.75367 9.82867 7.245 10.048C6.741 10.2627 6.19967 10.37 5.621 10.37ZM5.684 9.117C6.26267 9.117 6.762 8.977 7.182 8.697C7.35467 8.57567 7.52033 8.41933 7.679 8.228C7.83767 8.032 7.96833 7.79867 8.071 7.528L7.189 7.29C7.12833 7.43933 7.05367 7.577 6.965 7.703C6.87633 7.82433 6.76433 7.93167 6.629 8.025C6.36767 8.20233 6.055 8.291 5.691 8.291C5.11233 8.291 4.67367 8.081 4.375 7.661C4.23033 7.465 4.123 7.234 4.053 6.968C3.98767 6.702 3.955 6.42667 3.955 6.142C3.955 5.88067 3.98533 5.617 4.046 5.351C4.10667 5.085 4.21633 4.85167 4.375 4.651C4.70167 4.23567 5.14033 4.028 5.691 4.028C5.85433 4.028 6.01533 4.05133 6.174 4.098C6.33733 4.14 6.48433 4.20767 6.615 4.301C6.88567 4.497 7.084 4.75367 7.21 5.071L8.071 4.812C7.99633 4.53667 7.87267 4.294 7.7 4.084C7.52733 3.874 7.329 3.699 7.105 3.559C6.88567 3.42367 6.664 3.33033 6.44 3.279C6.216 3.22767 5.978 3.202 5.726 3.202C4.83933 3.202 4.151 3.50767 3.661 4.119C3.43233 4.40367 3.269 4.72333 3.171 5.078C3.07767 5.428 3.02867 5.785 3.024 6.149C3.024 6.50367 3.06833 6.85833 3.157 7.213C3.25033 7.56767 3.41833 7.899 3.661 8.207C3.913 8.51967 4.207 8.75067 4.543 8.9C4.879 9.04467 5.25933 9.117 5.684 9.117ZM14.7547 10.993H21.3347V10.006H16.3227L19.9067 6.772C20.3967 6.33333 20.756 5.90867 20.9847 5.498C21.218 5.08733 21.3347 4.56467 21.3347 3.93C21.3347 3.328 21.1924 2.78433 20.9077 2.299C20.6277 1.81367 20.2427 1.42867 19.7527 1.144C19.2674 0.854666 18.719 0.71 18.1077 0.71C17.487 0.71 16.927 0.85 16.4277 1.13C15.933 1.40533 15.541 1.78567 15.2517 2.271C14.9624 2.75167 14.8177 3.3 14.8177 3.916H15.8677C15.863 3.51933 15.9564 3.153 16.1477 2.817C16.3437 2.481 16.6097 2.21033 16.9457 2.005C17.2817 1.79967 17.6644 1.697 18.0937 1.697C18.509 1.697 18.8824 1.79733 19.2137 1.998C19.545 2.194 19.8064 2.46 19.9977 2.796C20.1937 3.132 20.2917 3.50767 20.2917 3.923C20.2917 4.273 20.2264 4.609 20.0957 4.931C19.965 5.253 19.706 5.589 19.3187 5.939L14.7617 10.055L14.7547 10.993ZM26.3091 11.21C26.9344 11.21 27.4944 11.0653 27.9891 10.776C28.4837 10.4867 28.8757 10.0947 29.1651 9.6C29.4544 9.10067 29.5991 8.54067 29.5991 7.92V4C29.5991 3.37467 29.4544 2.81467 29.1651 2.32C28.8757 1.82533 28.4837 1.43333 27.9891 1.144C27.4944 0.854666 26.9344 0.71 26.3091 0.71C25.6884 0.71 25.1284 0.854666 24.6291 1.144C24.1344 1.43333 23.7424 1.82533 23.4531 2.32C23.1637 2.81467 23.0191 3.37467 23.0191 4V7.92C23.0191 8.54067 23.1637 9.10067 23.4531 9.6C23.7424 10.0947 24.1344 10.4867 24.6291 10.776C25.1284 11.0653 25.6884 11.21 26.3091 11.21ZM26.3091 10.216C25.8984 10.216 25.5227 10.1157 25.1821 9.915C24.8414 9.70967 24.5684 9.43667 24.3631 9.096C24.1624 8.75533 24.0621 8.37967 24.0621 7.969V3.951C24.0621 3.53567 24.1624 3.15767 24.3631 2.817C24.5684 2.47633 24.8414 2.20567 25.1821 2.005C25.5227 1.79967 25.8984 1.697 26.3091 1.697C26.7244 1.697 27.1001 1.79967 27.4361 2.005C27.7767 2.20567 28.0474 2.47633 28.2481 2.817C28.4534 3.15767 28.5561 3.53567 28.5561 3.951V7.969C28.5561 8.37967 28.4534 8.75533 28.2481 9.096C28.0474 9.43667 27.7767 9.70967 27.4361 9.915C27.1001 10.1157 26.7244 10.216 26.3091 10.216ZM31.284 10.993H37.864V10.006H32.852L36.436 6.772C36.926 6.33333 37.2853 5.90867 37.514 5.498C37.7473 5.08733 37.864 4.56467 37.864 3.93C37.864 3.328 37.7217 2.78433 37.437 2.299C37.157 1.81367 36.772 1.42867 36.282 1.144C35.7967 0.854666 35.2483 0.71 34.637 0.71C34.0163 0.71 33.4563 0.85 32.957 1.13C32.4623 1.40533 32.0703 1.78567 31.781 2.271C31.4917 2.75167 31.347 3.3 31.347 3.916H32.397C32.3923 3.51933 32.4857 3.153 32.677 2.817C32.873 2.481 33.139 2.21033 33.475 2.005C33.811 1.79967 34.1937 1.697 34.623 1.697C35.0383 1.697 35.4117 1.79733 35.743 1.998C36.0743 2.194 36.3357 2.46 36.527 2.796C36.723 3.132 36.821 3.50767 36.821 3.923C36.821 4.273 36.7557 4.609 36.625 4.931C36.4943 5.253 36.2353 5.589 35.848 5.939L31.291 10.055L31.284 10.993ZM41.3054 11H42.3484V0.92H41.3054L39.4084 2.054V3.209L41.3054 2.068V11ZM50.4872 11H51.5162V1.907H55.0372V0.92H46.9662V1.907H50.4872V11ZM57.3383 11.21C58.659 11.21 59.618 10.7223 60.2153 9.747V11H61.1323V6.303C61.1323 6.023 61.1183 5.74767 61.0903 5.477C61.0623 5.20633 61.0016 4.96133 60.9083 4.742C60.7076 4.252 60.3646 3.87867 59.8793 3.622C59.3986 3.36067 58.813 3.23 58.1223 3.23C57.2916 3.23 56.615 3.41667 56.0923 3.79C55.5696 4.16333 55.2196 4.68833 55.0423 5.365L56.0433 5.659C56.188 5.155 56.4376 4.78633 56.7923 4.553C57.1516 4.31967 57.5903 4.203 58.1083 4.203C58.827 4.203 59.3403 4.371 59.6483 4.707C59.9563 5.03833 60.115 5.54467 60.1243 6.226C59.7883 6.27267 59.4173 6.32167 59.0113 6.373C58.61 6.42433 58.2063 6.48267 57.8003 6.548C57.3943 6.61333 57.021 6.688 56.6803 6.772C56.1156 6.92133 55.6536 7.171 55.2943 7.521C54.935 7.86633 54.7553 8.34933 54.7553 8.97C54.7553 9.37133 54.851 9.74233 55.0423 10.083C55.2336 10.4237 55.5206 10.6967 55.9033 10.902C56.2906 11.1073 56.769 11.21 57.3383 11.21ZM57.4573 10.321C57.0513 10.321 56.7246 10.2557 56.4773 10.125C56.2346 9.98967 56.0573 9.81933 55.9453 9.614C55.838 9.404 55.7843 9.18933 55.7843 8.97C55.7843 8.55933 55.922 8.25133 56.1973 8.046C56.4726 7.84067 56.7713 7.69133 57.0933 7.598C57.5086 7.486 57.9916 7.395 58.5423 7.325C59.093 7.255 59.6156 7.18967 60.1103 7.129C60.1103 7.30167 60.1033 7.5 60.0893 7.724C60.08 7.94333 60.0543 8.14633 60.0123 8.333C59.9143 8.90233 59.6436 9.376 59.2003 9.754C58.7616 10.132 58.1806 10.321 57.4573 10.321ZM66.0906 11.21C66.8419 11.21 67.4859 11.035 68.0226 10.685C68.5639 10.3303 68.9769 9.817 69.2616 9.145L68.2256 8.837C67.8429 9.761 67.1313 10.223 66.0906 10.223C65.2786 10.223 64.6673 9.95 64.2566 9.404C63.8459 8.85333 63.6359 8.12533 63.6266 7.22C63.6359 6.338 63.8389 5.617 64.2356 5.057C64.6369 4.497 65.2553 4.217 66.0906 4.217C66.5853 4.217 67.0239 4.343 67.4066 4.595C67.7939 4.84233 68.0763 5.19233 68.2536 5.645L69.2616 5.323C69.0516 4.67433 68.6619 4.16333 68.0926 3.79C67.5279 3.41667 66.8629 3.23 66.0976 3.23C65.3463 3.23 64.7069 3.398 64.1796 3.734C63.6523 4.06533 63.2486 4.532 62.9686 5.134C62.6886 5.73133 62.5439 6.42667 62.5346 7.22C62.5439 7.99467 62.6839 8.683 62.9546 9.285C63.2299 9.887 63.6313 10.3583 64.1586 10.699C64.6859 11.0397 65.3299 11.21 66.0906 11.21ZM70.6996 11H71.7426V7.36L75.4526 11H76.9506L72.9466 7.22L76.4886 3.44H75.1166L71.7426 7.08V3.44H70.7066L70.6996 11ZM80.3329 11H81.3619V1.907H84.8829V0.92H76.8119V1.907H80.3329V11ZM85.3011 14.36H86.3371V10.097C86.6078 10.4423 86.9415 10.7153 87.3381 10.916C87.7348 11.112 88.1898 11.21 88.7031 11.21C89.4125 11.21 90.0168 11.035 90.5161 10.685C91.0155 10.3303 91.3958 9.852 91.6571 9.25C91.9231 8.648 92.0561 7.969 92.0561 7.213C92.0561 6.46167 91.9231 5.785 91.6571 5.183C91.3958 4.581 91.0178 4.105 90.5231 3.755C90.0285 3.405 89.4358 3.23 88.7451 3.23C88.1851 3.23 87.6928 3.342 87.2681 3.566C86.8481 3.78533 86.5005 4.091 86.2251 4.483V3.44H85.3011V14.36ZM88.5981 10.251C88.0615 10.251 87.6181 10.1203 87.2681 9.859C86.9181 9.593 86.6568 9.23133 86.4841 8.774C86.3115 8.31667 86.2251 7.79633 86.2251 7.213C86.2251 6.32167 86.4188 5.596 86.8061 5.036C87.1981 4.47133 87.7885 4.189 88.5771 4.189C89.1185 4.189 89.5641 4.322 89.9141 4.588C90.2688 4.854 90.5325 5.21567 90.7051 5.673C90.8778 6.13033 90.9641 6.64367 90.9641 7.213C90.9641 7.787 90.8755 8.30267 90.6981 8.76C90.5255 9.21733 90.2641 9.58133 89.9141 9.852C89.5641 10.118 89.1255 10.251 88.5981 10.251ZM96.7923 11.21C97.5249 11.21 98.1806 11.0303 98.7593 10.671C99.3426 10.3117 99.7836 9.80067 100.082 9.138L99.1233 8.767C98.6426 9.73767 97.8516 10.223 96.7503 10.223C95.9943 10.223 95.4016 9.98733 94.9723 9.516C94.5476 9.04467 94.3143 8.375 94.2723 7.507H100.229C100.267 6.17233 99.9749 5.127 99.3543 4.371C98.7383 3.61033 97.8703 3.23 96.7503 3.23C96.0223 3.23 95.3899 3.39333 94.8533 3.72C94.3213 4.04667 93.9083 4.511 93.6143 5.113C93.3203 5.715 93.1733 6.429 93.1733 7.255C93.1733 8.053 93.3203 8.74833 93.6143 9.341C93.9129 9.93367 94.3329 10.3933 94.8743 10.72C95.4203 11.0467 96.0596 11.21 96.7923 11.21ZM96.7783 4.175C98.2016 4.175 98.9926 4.99867 99.1513 6.646H94.2933C94.3726 5.848 94.6246 5.23667 95.0493 4.812C95.4739 4.38733 96.0503 4.175 96.7783 4.175ZM101.776 11H102.819V7.36L106.529 11H108.027L104.023 7.22L107.565 3.44H106.193L102.819 7.08V3.44H101.783L101.776 11ZM111.654 11.21C112.386 11.21 113.042 11.0303 113.621 10.671C114.204 10.3117 114.645 9.80067 114.944 9.138L113.985 8.767C113.504 9.73767 112.713 10.223 111.612 10.223C110.856 10.223 110.263 9.98733 109.834 9.516C109.409 9.04467 109.176 8.375 109.134 7.507H115.091C115.128 6.17233 114.836 5.127 114.216 4.371C113.6 3.61033 112.732 3.23 111.612 3.23C110.884 3.23 110.251 3.39333 109.715 3.72C109.183 4.04667 108.77 4.511 108.476 5.113C108.182 5.715 108.035 6.429 108.035 7.255C108.035 8.053 108.182 8.74833 108.476 9.341C108.774 9.93367 109.194 10.3933 109.736 10.72C110.282 11.0467 110.921 11.21 111.654 11.21ZM111.64 4.175C113.063 4.175 113.854 4.99867 114.013 6.646H109.155C109.234 5.848 109.486 5.23667 109.911 4.812C110.335 4.38733 110.912 4.175 111.64 4.175ZM116.637 14.36H117.673V10.097C117.944 10.4423 118.277 10.7153 118.674 10.916C119.071 11.112 119.526 11.21 120.039 11.21C120.748 11.21 121.353 11.035 121.852 10.685C122.351 10.3303 122.732 9.852 122.993 9.25C123.259 8.648 123.392 7.969 123.392 7.213C123.392 6.46167 123.259 5.785 122.993 5.183C122.732 4.581 122.354 4.105 121.859 3.755C121.364 3.405 120.772 3.23 120.081 3.23C119.521 3.23 119.029 3.342 118.604 3.566C118.184 3.78533 117.836 4.091 117.561 4.483V3.44H116.637V14.36ZM119.934 10.251C119.397 10.251 118.954 10.1203 118.604 9.859C118.254 9.593 117.993 9.23133 117.82 8.774C117.647 8.31667 117.561 7.79633 117.561 7.213C117.561 6.32167 117.755 5.596 118.142 5.036C118.534 4.47133 119.124 4.189 119.913 4.189C120.454 4.189 120.9 4.322 121.25 4.588C121.605 4.854 121.868 5.21567 122.041 5.673C122.214 6.13033 122.3 6.64367 122.3 7.213C122.3 7.787 122.211 8.30267 122.034 8.76C121.861 9.21733 121.6 9.58133 121.25 9.852C120.9 10.118 120.461 10.251 119.934 10.251ZM125.125 11H126.322V9.803H125.125V11ZM131.287 11H135.501C136.392 11 137.111 10.748 137.657 10.244C138.203 9.73533 138.476 9.04467 138.476 8.172C138.476 7.58867 138.326 7.08 138.028 6.646C137.734 6.212 137.325 5.88067 136.803 5.652C137.167 5.442 137.454 5.15033 137.664 4.777C137.878 4.399 137.986 3.979 137.986 3.517C137.986 3.041 137.869 2.607 137.636 2.215C137.402 1.81833 137.076 1.50333 136.656 1.27C136.236 1.03667 135.743 0.92 135.179 0.92H131.287V11ZM132.323 5.218V1.893H135.172C135.68 1.893 136.098 2.04233 136.425 2.341C136.756 2.63967 136.922 3.027 136.922 3.503C136.922 4.007 136.751 4.42 136.411 4.742C136.07 5.05933 135.657 5.218 135.172 5.218H132.323ZM132.323 10.013V6.191H135.438C135.816 6.191 136.154 6.27967 136.453 6.457C136.751 6.63433 136.985 6.87467 137.153 7.178C137.325 7.47667 137.412 7.81267 137.412 8.186C137.412 8.76 137.204 9.208 136.789 9.53C136.373 9.852 135.86 10.013 135.249 10.013H132.323ZM143.009 11.21C143.76 11.21 144.404 11.035 144.941 10.685C145.482 10.3303 145.895 9.817 146.18 9.145L145.144 8.837C144.761 9.761 144.049 10.223 143.009 10.223C142.197 10.223 141.585 9.95 141.175 9.404C140.764 8.85333 140.554 8.12533 140.545 7.22C140.554 6.338 140.757 5.617 141.154 5.057C141.555 4.497 142.173 4.217 143.009 4.217C143.503 4.217 143.942 4.343 144.325 4.595C144.712 4.84233 144.994 5.19233 145.172 5.645L146.18 5.323C145.97 4.67433 145.58 4.16333 145.011 3.79C144.446 3.41667 143.781 3.23 143.016 3.23C142.264 3.23 141.625 3.398 141.098 3.734C140.57 4.06533 140.167 4.532 139.887 5.134C139.607 5.73133 139.462 6.42667 139.453 7.22C139.462 7.99467 139.602 8.683 139.873 9.285C140.148 9.887 140.549 10.3583 141.077 10.699C141.604 11.0397 142.248 11.21 143.009 11.21ZM150.824 11.21C151.556 11.21 152.212 11.0303 152.791 10.671C153.374 10.3117 153.815 9.80067 154.114 9.138L153.155 8.767C152.674 9.73767 151.883 10.223 150.782 10.223C150.026 10.223 149.433 9.98733 149.004 9.516C148.579 9.04467 148.346 8.375 148.304 7.507H154.261C154.298 6.17233 154.006 5.127 153.386 4.371C152.77 3.61033 151.902 3.23 150.782 3.23C150.054 3.23 149.421 3.39333 148.885 3.72C148.353 4.04667 147.94 4.511 147.646 5.113C147.352 5.715 147.205 6.429 147.205 7.255C147.205 8.053 147.352 8.74833 147.646 9.341C147.944 9.93367 148.364 10.3933 148.906 10.72C149.452 11.0467 150.091 11.21 150.824 11.21ZM150.81 4.175C152.233 4.175 153.024 4.99867 153.183 6.646H148.325C148.404 5.848 148.656 5.23667 149.081 4.812C149.505 4.38733 150.082 4.175 150.81 4.175ZM158.61 11H159.639V4.427H163.594V11H164.623V3.44H158.61V11ZM166.58 14.36H167.616V10.097C167.887 10.4423 168.221 10.7153 168.617 10.916C169.014 11.112 169.469 11.21 169.982 11.21C170.692 11.21 171.296 11.035 171.795 10.685C172.295 10.3303 172.675 9.852 172.936 9.25C173.202 8.648 173.335 7.969 173.335 7.213C173.335 6.46167 173.202 5.785 172.936 5.183C172.675 4.581 172.297 4.105 171.802 3.755C171.308 3.405 170.715 3.23 170.024 3.23C169.464 3.23 168.972 3.342 168.547 3.566C168.127 3.78533 167.78 4.091 167.504 4.483V3.44H166.58V14.36ZM169.877 10.251C169.341 10.251 168.897 10.1203 168.547 9.859C168.197 9.593 167.936 9.23133 167.763 8.774C167.591 8.31667 167.504 7.79633 167.504 7.213C167.504 6.32167 167.698 5.596 168.085 5.036C168.477 4.47133 169.068 4.189 169.856 4.189C170.398 4.189 170.843 4.322 171.193 4.588C171.548 4.854 171.812 5.21567 171.984 5.673C172.157 6.13033 172.243 6.64367 172.243 7.213C172.243 7.787 172.155 8.30267 171.977 8.76C171.805 9.21733 171.543 9.58133 171.193 9.852C170.843 10.118 170.405 10.251 169.877 10.251ZM177.036 11.21C178.356 11.21 179.315 10.7223 179.913 9.747V11H180.83V6.303C180.83 6.023 180.816 5.74767 180.788 5.477C180.76 5.20633 180.699 4.96133 180.606 4.742C180.405 4.252 180.062 3.87867 179.577 3.622C179.096 3.36067 178.51 3.23 177.82 3.23C176.989 3.23 176.312 3.41667 175.79 3.79C175.267 4.16333 174.917 4.68833 174.74 5.365L175.741 5.659C175.885 5.155 176.135 4.78633 176.49 4.553C176.849 4.31967 177.288 4.203 177.806 4.203C178.524 4.203 179.038 4.371 179.346 4.707C179.654 5.03833 179.812 5.54467 179.822 6.226C179.486 6.27267 179.115 6.32167 178.709 6.373C178.307 6.42433 177.904 6.48267 177.498 6.548C177.092 6.61333 176.718 6.688 176.378 6.772C175.813 6.92133 175.351 7.171 174.992 7.521C174.632 7.86633 174.453 8.34933 174.453 8.97C174.453 9.37133 174.548 9.74233 174.74 10.083C174.931 10.4237 175.218 10.6967 175.601 10.902C175.988 11.1073 176.466 11.21 177.036 11.21ZM177.155 10.321C176.749 10.321 176.422 10.2557 176.175 10.125C175.932 9.98967 175.755 9.81933 175.643 9.614C175.535 9.404 175.482 9.18933 175.482 8.97C175.482 8.55933 175.619 8.25133 175.895 8.046C176.17 7.84067 176.469 7.69133 176.791 7.598C177.206 7.486 177.689 7.395 178.24 7.325C178.79 7.255 179.313 7.18967 179.808 7.129C179.808 7.30167 179.801 7.5 179.787 7.724C179.777 7.94333 179.752 8.14633 179.71 8.333C179.612 8.90233 179.341 9.376 178.898 9.754C178.459 10.132 177.878 10.321 177.155 10.321ZM182.645 11H186.166C186.357 11 186.56 10.993 186.775 10.979C186.994 10.965 187.197 10.9323 187.384 10.881C187.799 10.7597 188.131 10.5357 188.378 10.209C188.625 9.88233 188.749 9.46 188.749 8.942C188.749 8.19533 188.474 7.65633 187.923 7.325C187.755 7.22233 187.594 7.157 187.44 7.129C187.613 7.05433 187.771 6.93767 187.916 6.779C188.065 6.625 188.18 6.443 188.259 6.233C188.343 6.01833 188.385 5.77567 188.385 5.505C188.385 5.01967 188.254 4.60667 187.993 4.266C187.736 3.92067 187.396 3.68967 186.971 3.573C186.775 3.52167 186.563 3.48667 186.334 3.468C186.11 3.44933 185.919 3.44 185.76 3.44H182.645V11ZM183.681 6.779V4.322H185.655C185.706 4.322 185.828 4.32667 186.019 4.336C186.215 4.34533 186.397 4.38033 186.565 4.441C186.812 4.52033 186.997 4.66267 187.118 4.868C187.244 5.06867 187.307 5.29967 187.307 5.561C187.307 5.80367 187.249 6.02767 187.132 6.233C187.02 6.43833 186.843 6.583 186.6 6.667C186.483 6.709 186.35 6.73933 186.201 6.758C186.052 6.772 185.916 6.779 185.795 6.779H183.681ZM183.681 10.125V7.661H185.97C186.063 7.661 186.168 7.66333 186.285 7.668C186.406 7.67267 186.518 7.68667 186.621 7.71C186.938 7.75667 187.195 7.88733 187.391 8.102C187.587 8.312 187.685 8.58267 187.685 8.914C187.685 9.166 187.62 9.39933 187.489 9.614C187.363 9.824 187.162 9.964 186.887 10.034C186.77 10.0667 186.637 10.09 186.488 10.104C186.339 10.118 186.215 10.125 186.117 10.125H183.681ZM192.307 11.21C193.628 11.21 194.587 10.7223 195.184 9.747V11H196.101V6.303C196.101 6.023 196.087 5.74767 196.059 5.477C196.031 5.20633 195.97 4.96133 195.877 4.742C195.676 4.252 195.333 3.87867 194.848 3.622C194.367 3.36067 193.782 3.23 193.091 3.23C192.26 3.23 191.584 3.41667 191.061 3.79C190.538 4.16333 190.188 4.68833 190.011 5.365L191.012 5.659C191.157 5.155 191.406 4.78633 191.761 4.553C192.12 4.31967 192.559 4.203 193.077 4.203C193.796 4.203 194.309 4.371 194.617 4.707C194.925 5.03833 195.084 5.54467 195.093 6.226C194.757 6.27267 194.386 6.32167 193.98 6.373C193.579 6.42433 193.175 6.48267 192.769 6.548C192.363 6.61333 191.99 6.688 191.649 6.772C191.084 6.92133 190.622 7.171 190.263 7.521C189.904 7.86633 189.724 8.34933 189.724 8.97C189.724 9.37133 189.82 9.74233 190.011 10.083C190.202 10.4237 190.489 10.6967 190.872 10.902C191.259 11.1073 191.738 11.21 192.307 11.21ZM192.426 10.321C192.02 10.321 191.693 10.2557 191.446 10.125C191.203 9.98967 191.026 9.81933 190.914 9.614C190.807 9.404 190.753 9.18933 190.753 8.97C190.753 8.55933 190.891 8.25133 191.166 8.046C191.441 7.84067 191.74 7.69133 192.062 7.598C192.477 7.486 192.96 7.395 193.511 7.325C194.062 7.255 194.584 7.18967 195.079 7.129C195.079 7.30167 195.072 7.5 195.058 7.724C195.049 7.94333 195.023 8.14633 194.981 8.333C194.883 8.90233 194.612 9.376 194.169 9.754C193.73 10.132 193.149 10.321 192.426 10.321ZM203.449 11.21C203.981 11.21 204.459 11.1167 204.884 10.93C205.313 10.7387 205.652 10.4703 205.899 10.125C206.151 9.775 206.277 9.35967 206.277 8.879C206.277 8.515 206.195 8.16267 206.032 7.822C205.869 7.47667 205.617 7.22 205.276 7.052C205.533 6.856 205.731 6.62267 205.871 6.352C206.011 6.07667 206.081 5.76167 206.081 5.407C206.081 4.94967 205.964 4.56 205.731 4.238C205.502 3.91133 205.19 3.66167 204.793 3.489C204.401 3.31633 203.962 3.23 203.477 3.23C202.861 3.23 202.299 3.33967 201.79 3.559C201.286 3.77367 200.845 4.08867 200.467 4.504L201.125 5.197C201.4 4.90767 201.736 4.672 202.133 4.49C202.53 4.30333 202.952 4.21 203.4 4.21C203.843 4.21 204.224 4.315 204.541 4.525C204.863 4.73033 205.024 5.04767 205.024 5.477C205.024 5.88767 204.865 6.18633 204.548 6.373C204.231 6.55967 203.808 6.653 203.281 6.653H202.399V7.535H203.295C203.939 7.535 204.422 7.62833 204.744 7.815C205.066 7.997 205.227 8.319 205.227 8.781C205.227 9.229 205.059 9.58133 204.723 9.838C204.387 10.0947 203.941 10.223 203.386 10.223C202.322 10.223 201.508 9.747 200.943 8.795L200.117 9.32C200.444 9.91267 200.889 10.377 201.454 10.713C202.023 11.0443 202.688 11.21 203.449 11.21ZM209.985 11.21C211.305 11.21 212.264 10.7223 212.862 9.747V11H213.779V6.303C213.779 6.023 213.765 5.74767 213.737 5.477C213.709 5.20633 213.648 4.96133 213.555 4.742C213.354 4.252 213.011 3.87867 212.526 3.622C212.045 3.36067 211.459 3.23 210.769 3.23C209.938 3.23 209.261 3.41667 208.739 3.79C208.216 4.16333 207.866 4.68833 207.689 5.365L208.69 5.659C208.834 5.155 209.084 4.78633 209.439 4.553C209.798 4.31967 210.237 4.203 210.755 4.203C211.473 4.203 211.987 4.371 212.295 4.707C212.603 5.03833 212.761 5.54467 212.771 6.226C212.435 6.27267 212.064 6.32167 211.658 6.373C211.256 6.42433 210.853 6.48267 210.447 6.548C210.041 6.61333 209.667 6.688 209.327 6.772C208.762 6.92133 208.3 7.171 207.941 7.521C207.581 7.86633 207.402 8.34933 207.402 8.97C207.402 9.37133 207.497 9.74233 207.689 10.083C207.88 10.4237 208.167 10.6967 208.55 10.902C208.937 11.1073 209.415 11.21 209.985 11.21ZM210.104 10.321C209.698 10.321 209.371 10.2557 209.124 10.125C208.881 9.98967 208.704 9.81933 208.592 9.614C208.484 9.404 208.431 9.18933 208.431 8.97C208.431 8.55933 208.568 8.25133 208.844 8.046C209.119 7.84067 209.418 7.69133 209.74 7.598C210.155 7.486 210.638 7.395 211.189 7.325C211.739 7.255 212.262 7.18967 212.757 7.129C212.757 7.30167 212.75 7.5 212.736 7.724C212.726 7.94333 212.701 8.14633 212.659 8.333C212.561 8.90233 212.29 9.376 211.847 9.754C211.408 10.132 210.827 10.321 210.104 10.321ZM224.218 12.309H225.247V10.048H224.26V3.44H223.259V10.048H220.431V3.44H219.43V10.048H216.595V3.44H215.594V11H224.218V12.309ZM232.367 3.44H231.506L227.355 9.278V3.44H226.354V11H227.222L231.366 5.113V11H232.367V3.44ZM242.949 12.309H243.978V10.048H242.991V3.44H241.99V10.048H239.162V3.44H238.161V10.048H235.326V3.44H234.325V11H242.949V12.309ZM248.29 11.21C249.023 11.21 249.679 11.0303 250.257 10.671C250.841 10.3117 251.282 9.80067 251.58 9.138L250.621 8.767C250.141 9.73767 249.35 10.223 248.248 10.223C247.492 10.223 246.9 9.98733 246.47 9.516C246.046 9.04467 245.812 8.375 245.77 7.507H251.727C251.765 6.17233 251.473 5.127 250.852 4.371C250.236 3.61033 249.368 3.23 248.248 3.23C247.52 3.23 246.888 3.39333 246.351 3.72C245.819 4.04667 245.406 4.511 245.112 5.113C244.818 5.715 244.671 6.429 244.671 7.255C244.671 8.053 244.818 8.74833 245.112 9.341C245.411 9.93367 245.831 10.3933 246.372 10.72C246.918 11.0467 247.558 11.21 248.29 11.21ZM248.276 4.175C249.7 4.175 250.491 4.99867 250.649 6.646H245.791C245.871 5.848 246.123 5.23667 246.547 4.812C246.972 4.38733 247.548 4.175 248.276 4.175ZM253.274 11H254.303V7.71H258.566V11H259.595V3.44H258.566V6.723H254.303V3.44H253.274V11ZM261.559 11H263.988C264.203 11 264.422 10.9953 264.646 10.986C264.875 10.972 265.083 10.944 265.269 10.902C265.783 10.79 266.205 10.5473 266.536 10.174C266.872 9.80067 267.04 9.28967 267.04 8.641C267.04 7.93167 266.856 7.402 266.487 7.052C266.123 6.702 265.664 6.471 265.108 6.359C264.94 6.331 264.751 6.31233 264.541 6.303C264.331 6.29367 264.117 6.289 263.897 6.289H262.581V3.44H261.545L261.559 11ZM267.943 11H268.972V3.44H267.943V11ZM262.581 10.118V7.171H263.946C264.096 7.171 264.254 7.17567 264.422 7.185C264.59 7.19433 264.749 7.21533 264.898 7.248C265.225 7.318 265.486 7.46267 265.682 7.682C265.878 7.89667 265.976 8.21633 265.976 8.641C265.976 9.075 265.874 9.397 265.668 9.607C265.463 9.817 265.237 9.957 264.989 10.027C264.84 10.069 264.667 10.0947 264.471 10.104C264.275 10.1133 264.1 10.118 263.946 10.118H262.581Z" fill="#D9DBE1"/>
</svg>
